<svg xmlns="http://www.w3.org/2000/svg" viewBox="10 4 44 52" width="128" height="128" role="img" aria-label="dsh-sticky-notes">
  <defs>
    <linearGradient id="noteGradient" x1="0" y1="0" x2="1" y2="1">
      <stop offset="0" stop-color="#4f6ef7"/>
      <stop offset="1" stop-color="#2b4cd7"/>
    </linearGradient>
  </defs>
  <path d="M14 8h30a6 6 0 0 1 6 6v22l-14 14H20a6 6 0 0 1-6-6V14a6 6 0 0 1 6-6z" fill="url(#noteGradient)"/>
  <path d="M50 36h-8a4 4 0 0 0-4 4v8l12-12z" fill="#1e3bb3"/>
  <path d="M24 34c0-8 8-12 14-10 5 2 8 6 8 10s-3 8-8 9c-6 1-14-1-14-9z" fill="#ffffff" opacity=".95"/>
  <path d="M31 24l4-7 3 8z" fill="#ffffff" opacity=".95"/>
  <path d="M24 34l-8-5 4 5-4 5 8-5z" fill="#ffffff" opacity=".95"/>
  <path d="M33 38l6 3-5 3z" fill="#ffffff" opacity=".95"/>
  <circle cx="40" cy="28" r="2" fill="#2b4cd7"/>
</svg>
